<svg viewBox="0 0 56 56"
     width="48"
     height="48"
     id="mail-check-medium"
     data-supported-dps="48x48"
     xmlns="http://www.w3.org/2000/svg">
  <path d="M12 4h32c1.1 0 2 .9 2 2v34H10V6c0-1.1.9-2 2-2z" fill="#fff"/>
  <path fill="#9bdaf3" d="M11.6 49h33L28 38.3z"/>
  <path fill="#fff" d="M49 48.2V32.1l-11.3 5-3.5 1.6zM7 31v17.4l14.8-9.7z"/>
  <path d="M50 28h-4V6c0-1.1-.9-2-2-2H12c-1.1 0-2 .9-2 2v22H6c-1.1 0-2 .9-2 2v20c0 1.1.9 2 2 2h44c1.1 0 2-.9 2-2V30c0-1.1-.9-2-2-2zM13 7h30v24.5l-11.9 5.2-2.1-1.3c-.7-.4-1.5-.4-2.2 0L25 36.6l-12-5.4V7zM7 31.8l15 6.8-15 9.8V31.8zM11.6 49L28 38.3 44.6 49h-33zm37.4-.8l-14.8-9.6L49 32.1v16.1z" fill="#005e93"/>
  <path d="M34.6 14l-8.1 10.3-3.3-4.2-2.6 1.9 3.9 5c.4.6 1.1 1 1.9 1 .7 0 1.4-.4 1.9-1L37 15.8 34.6 14zm-8.1 13.5z" fill="#33aada"/>
</svg>
